<svg id="Capa_1" data-name="Capa 1" xmlns="http://www.w3.org/2000/svg" viewBox="0 0 236.78 297.6"><path d="M744.48,278.17q-26.43-13.77-80.33-13.77H576V429.65q33.16-10.72,66.44-21.2v-95h28.51q21.31,0,36.52,8.3t25.45,28.91a96.79,96.79,0,0,1,8.77,27Q774.8,367.45,808,357.3a109.57,109.57,0,0,0-16.18-35.58Q770.91,291.95,744.48,278.17Z" transform="translate(-575.99 -264.4)"/><path d="M743.15,426.45q0,34.38-17.95,59.87T670.3,511.8H642.43V439.45q-33.27,10.49-66.44,21.2V562h99.36q64.26,0,100.84-38.38T812.76,428A156.44,156.44,0,0,0,808,388.3q-33.21,10.15-66.33,20.32A106.37,106.37,0,0,1,743.15,426.45Z" transform="translate(-575.99 -264.4)"/></svg>