<svg id="Capa_1" data-name="Capa 1" xmlns="http://www.w3.org/2000/svg" viewBox="0 0 534 534"><defs><style>.cls-1{fill:#fff;}</style></defs><path class="cls-1" d="M674,677.5a266.51,266.51,0,1,1,188.44-78.06A264.73,264.73,0,0,1,674,677.5Z" transform="translate(-407 -144)"/><path class="cls-1" d="M674,145a265.12,265.12,0,1,1-103.54,20.9A264.33,264.33,0,0,1,674,145m0-1c-147.46,0-267,119.54-267,267S526.54,678,674,678,941,558.46,941,411,821.46,144,674,144Z" transform="translate(-407 -144)"/><path d="M744.48,278.17q-26.43-13.77-80.33-13.77H576V429.65q33.16-10.72,66.44-21.2v-95h28.51q21.31,0,36.52,8.3t25.45,28.91a96.79,96.79,0,0,1,8.77,27Q774.8,367.45,808,357.3a109.57,109.57,0,0,0-16.18-35.58Q770.91,291.95,744.48,278.17Z" transform="translate(-407 -144)"/><path d="M743.15,426.45q0,34.38-17.95,59.87T670.3,511.8H642.43V439.45q-33.27,10.49-66.44,21.2V562h99.36q64.26,0,100.84-38.38T812.76,428A156.44,156.44,0,0,0,808,388.3q-33.21,10.15-66.33,20.32A106.37,106.37,0,0,1,743.15,426.45Z" transform="translate(-407 -144)"/></svg>