<svg xmlns="http://www.w3.org/2000/svg" viewBox="0 0 655.18 324.6"><defs><style>.cls-1{opacity:0.5;}.cls-2{fill:none;}</style></defs><g class="cls-1"><g id="Capa_1" data-name="Capa 1"><line class="cls-2" x1="95.18" y1="286.6" x2="655.18" y2="119.6"/></g></g><path d="M476,308.8q0,48.81-20.16,72.6t-62.44,23.8H373V323.84c-23.21,11.13-46.56,22-70.16,32.37V454h88.57q75.63,0,116.43-37.8t40.8-109.4q0-36.45-11.58-63.53c-21.51,10.34-42.89,20.89-64.23,31.48A166.44,166.44,0,0,1,476,308.8Z" transform="translate(-302.82 -129.4)"/><path d="M508.81,164.8Q469,129.4,398.36,129.4H302.82V317.21c23.6-10.38,46.95-21.24,70.16-32.37V177.4h25.87q37.81,0,57.47,22.4,11.79,13.44,16.49,35.95c21.34-10.59,42.72-21.14,64.23-31.48A109.8,109.8,0,0,0,508.81,164.8Z" transform="translate(-302.82 -129.4)"/></svg>